<?xml version="1.0" standalone="no"?>
<!DOCTYPE svg PUBLIC "-//W3C//DTD SVG 20010904//EN"
 "http://www.w3.org/TR/2001/REC-SVG-20010904/DTD/svg10.dtd">
<svg version="1.0" xmlns="http://www.w3.org/2000/svg"
 width="500.000000pt" height="500.000000pt" viewBox="0 0 500.000000 500.000000"
 preserveAspectRatio="xMidYMid meet">
<metadata>
Created by potrace 1.16, written by Peter Selinger 2001-2019
</metadata>
<g transform="translate(0.000000,500.000000) scale(0.100000,-0.100000)"
fill="#000000" stroke="none">
<path d="M2725 3695 c-55 -22 -98 -67 -132 -139 -27 -59 -28 -66 -27 -221 1
-177 17 -261 73 -382 32 -67 98 -146 142 -169 36 -18 115 -18 168 1 103 36
190 135 199 225 6 68 -10 64 -37 -9 -35 -97 -118 -167 -226 -191 -41 -9 -53
-8 -92 11 -39 19 -119 106 -108 117 2 2 35 -3 74 -12 38 -9 99 -16 134 -16 81
0 122 25 157 95 22 45 25 61 24 160 -1 107 -21 228 -58 350 l-15 50 24 -30
c56 -68 105 -241 105 -369 0 -54 4 -77 15 -86 26 -21 37 2 45 92 19 210 -71
419 -219 506 -55 32 -182 41 -246 17z"/>
<path d="M2102 3668 c-7 -7 -12 -17 -12 -22 0 -6 -24 -23 -53 -38 -50 -26 -45
-19 19 28 35 26 30 34 -13 22 -54 -14 -153 -98 -200 -168 -143 -214 -115 -542
60 -707 118 -112 244 -146 338 -91 134 79 188 224 176 478 -15 302 -124 510
-269 510 -19 0 -39 -5 -46 -12z m178 -193 c54 -126 86 -349 70 -490 -18 -157
-110 -275 -214 -275 -78 1 -198 74 -261 159 -45 62 -44 69 3 32 56 -45 129
-73 204 -79 94 -7 121 7 155 77 25 51 28 68 31 191 4 121 -7 260 -34 435 -6
39 -6 39 10 18 9 -12 25 -42 36 -68z"/>
<path d="M3497 3155 c-9 -9 -17 -22 -17 -28 0 -7 -14 -28 -31 -47 -30 -34 -30
-34 -10 -3 42 62 21 72 -31 15 -84 -93 -161 -230 -199 -352 -18 -59 -23 -99
-24 -185 0 -130 15 -189 61 -243 46 -54 79 -65 172 -60 139 8 245 76 298 190
28 62 29 66 28 233 0 191 -14 268 -65 372 -17 36 -45 74 -64 88 -44 34 -96 43
-118 20z m184 -410 c14 -114 7 -229 -19 -287 -43 -98 -138 -158 -262 -166 -67
-4 -78 -2 -104 19 -26 21 -81 118 -71 127 2 3 18 -7 34 -21 43 -36 95 -50 158
-44 80 8 133 44 170 114 43 81 57 157 57 318 0 136 0 138 13 85 7 -30 18 -95
24 -145z"/>
<path d="M1399 2946 c-41 -28 -80 -84 -111 -159 -30 -71 -32 -263 -4 -349 25
-76 78 -162 102 -166 10 -2 35 -11 54 -19 45 -21 186 -29 234 -13 187 61 162
271 -70 583 -35 48 -60 87 -56 87 16 0 83 -63 125 -119 57 -76 139 -236 166
-325 49 -158 11 -264 -108 -304 -19 -7 -49 -12 -66 -12 -49 0 -154 35 -209 70
-62 40 -82 33 -34 -12 142 -136 384 -120 450 30 17 38 20 60 16 132 -4 71 -13
104 -47 190 -75 187 -168 330 -248 380 -62 40 -141 42 -194 6z"/>
<path d="M2533 2675 c-64 -18 -139 -55 -213 -105 -100 -68 -98 -64 -130 -262
-17 -108 -41 -151 -145 -258 -130 -134 -160 -197 -159 -330 0 -78 6 -111 31
-188 49 -146 87 -187 201 -218 80 -21 336 -31 387 -14 122 39 169 132 145 285
-14 87 -39 128 -90 149 -56 22 -79 20 -186 -16 -93 -31 -94 -31 -115 -12 -12
10 -30 38 -40 61 -10 23 -34 66 -53 95 l-36 52 72 38 c99 52 123 79 158 178
61 173 137 220 309 192 36 -6 87 -14 113 -17 108 -14 172 -103 192 -265 12
-95 -25 -286 -64 -328 -30 -32 -58 -27 -100 17 -51 54 -74 140 -68 255 2 47 1
83 -3 81 -14 -10 -31 -140 -26 -204 7 -83 39 -169 75 -204 116 -110 215 -5
229 246 3 59 9 107 12 107 3 0 21 -9 39 -20 42 -26 79 -105 97 -207 16 -89 37
-123 92 -142 49 -17 83 -10 126 28 31 28 32 33 35 113 3 66 -1 95 -17 138 -28
74 -95 157 -188 232 -132 107 -167 144 -254 266 -100 140 -170 217 -223 244
-51 26 -137 32 -203 13z"/>
</g>
</svg>
